# xmcd
# 
# Track frame offsets:
#     150
#     18030
#     33596
#     51853
#     70927
#     91786
#     113083
#     128090
#     160847
#     186453
#     212308
#     237523
#     256901
#     281110
#     295169
# 
# Disc length: 4229
# 
# Revision: 5
# Processed by: cddbd v1.5.2PL0 Copyright (c) Steve Scherf et al.
# Submitted via: BonkEnc v1.0.6
# 
DISCID=d110830f
DTITLE=Various Artist - Dark Awakening Vol.2
DYEAR=2002
DGENRE=Gothic Rock
TTITLE0=Der Fluch - Werwolf
TTITLE1=The convent - First impression of the west
TTITLE2=1919 - Dream
TTITLE3=Diva destruction - The broken ones
TTITLE4=Suspiria - Allegedly, dancefloor tragedy
TTITLE5=Faces of sarah - All that is divine
TTITLE6=Morbid Poetry - Train
TTITLE7=Phantom vision - Archfiend
TTITLE8=The Mission - Slave (To lust)
TTITLE9=Mortiis - You put a hex on me
TTITLE10=Elusive - The circle never ends
TTITLE11=The deep eynde - Deep dark secret
TTITLE12=Clan of Xymox - I want you now
TTITLE13=Brother Orchid - Season of the witch
TTITLE14=Irony of fate - Waiting dawn
EXTD=YEAR: 2002  ID3G:  12
EXTT0=
EXTT1=
EXTT2=
EXTT3=
EXTT4=
EXTT5=
EXTT6=
EXTT7=
EXTT8=
EXTT9=
EXTT10=
EXTT11=
EXTT12=
EXTT13=
EXTT14=
PLAYORDER=
